<svg width="20" height="24" viewBox="0 0 20 24" fill="none" xmlns="http://www.w3.org/2000/svg">
<path d="M9.69691 7.16205C8.77103 7.16205 7.33782 6.10934 5.82852 6.14739C3.83725 6.17276 2.01086 7.30156 0.983515 9.0899C-1.08385 12.6793 0.450818 17.9809 2.46745 20.898C3.45675 22.3185 4.62361 23.9166 6.17096 23.8659C7.6549 23.8025 8.21297 22.902 10.014 22.902C11.8023 22.902 12.3097 23.8659 13.8824 23.8278C15.4805 23.8025 16.4951 22.3819 17.4717 20.9487C18.6005 19.2999 19.0698 17.7018 19.0952 17.613C19.0571 17.6004 15.9878 16.4208 15.9497 12.8695C15.9244 9.90163 18.3722 8.48111 18.4864 8.41769C17.0912 6.37569 14.9478 6.14739 14.1995 6.09666C12.2462 5.94446 10.6101 7.16205 9.69691 7.16205ZM12.9946 4.1688C13.819 3.17951 14.3643 1.79704 14.2121 0.427246C13.0326 0.477979 11.6121 1.21361 10.7623 2.2029C10.0013 3.07804 9.34177 4.48589 9.51934 5.83031C10.8257 5.93178 12.1701 5.1581 12.9946 4.1688Z" fill="white"/>
</svg>
