<svg width="23" height="23" viewBox="0 0 23 23" fill="none" xmlns="http://www.w3.org/2000/svg">
<g clip-path="url(#clip0)">
<path d="M17.4024 7.91517C14.8485 6.48674 10.7495 4.19303 4.39154 0.633069C3.96289 0.349978 3.4697 0.312879 3.04358 0.457109L13.952 11.3656L17.4024 7.91517Z" fill="#32BBFF"/>
<path d="M3.04361 0.457031C2.96375 0.484082 2.88603 0.516715 2.8117 0.556133C2.34114 0.81067 1.99536 1.30047 1.99536 1.91993V20.811C1.99536 21.4305 2.3411 21.9203 2.8117 22.1748C2.8859 22.2141 2.96357 22.2469 3.04335 22.2741L13.9521 11.3655L3.04361 0.457031Z" fill="#32BBFF"/>
<path d="M13.952 11.3655L3.04333 22.2741C3.46958 22.4194 3.96277 22.3852 4.39155 22.098C10.5574 18.6453 14.6102 16.3788 17.1936 14.9382C17.2656 14.8978 17.336 14.8583 17.4057 14.8192L13.952 11.3655Z" fill="#32BBFF"/>
<path d="M1.99536 11.3655V20.811C1.99536 21.4305 2.3411 21.9203 2.8117 22.1748C2.8859 22.2142 2.96357 22.2469 3.04335 22.2741L13.9521 11.3655H1.99536Z" fill="#2C9FD9"/>
<path d="M4.39163 0.633095C3.8826 0.296975 3.28233 0.30655 2.81177 0.556278L13.7865 11.5311L17.4025 7.91519C14.8486 6.48677 10.7496 4.19305 4.39163 0.633095Z" fill="#29CC5E"/>
<path d="M13.7866 11.2002L2.81177 22.1749C3.28237 22.4246 3.8826 22.4391 4.39163 22.0981C10.5575 18.6455 14.6103 16.379 17.1937 14.9384C17.2657 14.898 17.3361 14.8585 17.4058 14.8194L13.7866 11.2002Z" fill="#D93F21"/>
<path d="M21.9574 11.3655C21.9574 10.8421 21.6933 10.3139 21.1698 10.021C21.1698 10.021 20.1909 9.47475 17.1902 7.79639L13.6211 11.3655L17.1937 14.9382C20.1614 13.2719 21.1698 12.7101 21.1698 12.7101C21.6933 12.4172 21.9574 11.889 21.9574 11.3655Z" fill="#FFD500"/>
<path d="M21.1698 12.7101C21.6933 12.4171 21.9574 11.8889 21.9574 11.3655H13.6211L17.1937 14.9382C20.1615 13.2719 21.1698 12.7101 21.1698 12.7101Z" fill="#FFAA00"/>
</g>
<defs>
<clipPath id="clip0">
<rect width="21.9843" height="21.9843" fill="white" transform="translate(0.984253 0.374268)"/>
</clipPath>
</defs>
</svg>
