<svg width="165" height="132" viewBox="0 0 165 132" fill="none" xmlns="http://www.w3.org/2000/svg">
<path d="M0.783447 116.325H165V116.407H0.783447V116.325Z" fill="#EBEBEB"/>
<path d="M23.869 118.561H55.9241V118.643H23.869V118.561Z" fill="#EBEBEB"/>
<path d="M54.7549 120.459H70.0829V120.542H54.7549V120.459Z" fill="#EBEBEB"/>
<path d="M17.238 121.609H23.5406V121.691H17.238V121.609Z" fill="#EBEBEB"/>
<path d="M93.0732 120.499H123.463V120.581H93.0732V120.499Z" fill="#EBEBEB"/>
<path d="M126.386 120.499H132.922V120.581H126.386V120.499Z" fill="#EBEBEB"/>
<path d="M135.227 119.113H146.02V119.195H135.227V119.113Z" fill="#EBEBEB"/>
<path d="M87.1615 101.676H150.579C151.075 101.675 151.552 101.477 151.903 101.126C152.254 100.774 152.451 100.298 152.451 99.8009V10.6543C152.446 10.1604 152.247 9.68808 151.897 9.34002C151.546 8.99196 151.073 8.79626 150.579 8.79541H87.1615C86.6641 8.79541 86.1871 8.99299 85.8354 9.34469C85.4837 9.69639 85.2861 10.1734 85.2861 10.6708V99.8009C85.2861 100.298 85.4837 100.775 85.8354 101.127C86.1871 101.479 86.6641 101.676 87.1615 101.676ZM150.579 8.8611C151.054 8.86197 151.509 9.05128 151.845 9.38749C152.18 9.72369 152.369 10.1793 152.369 10.6543V99.8009C152.369 100.276 152.18 100.732 151.845 101.068C151.509 101.404 151.054 101.593 150.579 101.594H87.1615C86.6861 101.593 86.2305 101.404 85.8944 101.068C85.5583 100.732 85.3691 100.276 85.3682 99.8009V10.6543C85.3691 10.179 85.5583 9.7234 85.8944 9.38728C86.2305 9.05117 86.6861 8.86197 87.1615 8.8611H150.579Z" fill="#EBEBEB"/>
<path d="M16.118 101.676H79.5385C80.0356 101.675 80.5121 101.478 80.8636 101.126C81.2151 100.775 81.413 100.298 81.4138 99.8009V10.6543C81.4086 10.1601 81.2089 9.68779 80.8578 9.33982C80.5068 8.99185 80.0327 8.79625 79.5385 8.79541H16.118C15.6246 8.79712 15.1518 8.99321 14.802 9.34118C14.4521 9.68914 14.2536 10.161 14.2492 10.6543V99.8009C14.2492 100.297 14.4459 100.773 14.7962 101.125C15.1465 101.476 15.6218 101.675 16.118 101.676ZM79.5385 8.8611C80.0138 8.86197 80.4694 9.05117 80.8055 9.38728C81.1416 9.7234 81.3308 10.179 81.3317 10.6543V99.8009C81.3308 100.276 81.1416 100.732 80.8055 101.068C80.4694 101.404 80.0138 101.593 79.5385 101.594H16.118C15.6427 101.593 15.1871 101.404 14.851 101.068C14.5149 100.732 14.3257 100.276 14.3248 99.8009V10.6543C14.3257 10.179 14.5149 9.7234 14.851 9.38728C15.1871 9.05117 15.6427 8.86197 16.118 8.8611H79.5385Z" fill="#EBEBEB"/>
<path d="M12.3608 113.75H70.6018V116.325H12.3608V113.75Z" fill="#EBEBEB"/>
<path d="M12.3607 116.321H10.1438V113.746H12.3607V116.321Z" fill="#E0E0E0"/>
<path d="M14.0029 113.75H11.786V111.999H14.0029V113.75Z" fill="#E0E0E0"/>
<path d="M14.0029 111.996H68.9596V113.746H14.0029V111.996Z" fill="#EBEBEB"/>
<path d="M19.5042 72.8398H63.4584V111.996H19.5042V72.8398Z" fill="#F5F5F5"/>
<path d="M19.5041 111.996H16.2756L16.2756 72.84H19.5041L19.5041 111.996Z" fill="#E0E0E0"/>
<path d="M17.6813 69.4471H65.2844V72.8399H17.6813V69.4471Z" fill="#F5F5F5"/>
<path d="M17.6813 72.8398H15.2903V69.4471H17.6813V72.8398Z" fill="#E0E0E0"/>
<path d="M32.6875 7.41934V69.4472H47.5228V7.41934C47.5228 5.45162 46.7412 3.56449 45.3498 2.1731C43.9584 0.781711 42.0712 3.67492e-05 40.1035 3.67492e-05C39.6416 -0.00145628 39.1807 0.0425477 38.7274 0.13141C37.0292 0.452103 35.4963 1.35582 34.3935 2.68647C33.2908 4.01712 32.6873 5.69113 32.6875 7.41934Z" fill="#F5F5F5"/>
<path d="M34.7665 2.26975V69.4475H38.7274V0.148071C37.2184 0.425555 35.8336 1.1673 34.7665 2.26975Z" fill="#F0F0F0"/>
<path d="M19.5042 72.8398H63.4584V73.6806H19.5042V72.8398Z" fill="#E0E0E0"/>
<path d="M25.8528 82.9132H57.1097V111.999H25.8528V82.9132Z" fill="#E0E0E0"/>
<path d="M54.41 106.771L28.5558 105.391V109.543L54.41 110.922V106.771Z" fill="#E6E6E6"/>
<path d="M30.4509 104.544L52.5117 103.164V107.319L30.4509 108.695V104.544Z" fill="#E6E6E6"/>
<path d="M41.4698 106.669C47.4966 106.669 49.8777 101.493 47.71 97.1605C45.5424 92.8284 46.4292 91.6559 46.4292 91.6559C46.4292 91.6559 43.736 93.9878 43.736 95.7219C41.6176 93.7284 46.8758 89.4456 44.6983 85.1562C43.0791 88.0169 42.0019 89.4489 37.1181 93.6495C32.5233 97.594 29.6856 106.669 41.4698 106.669Z" fill="#FAFAFA"/>
<path opacity="0.5" d="M40.271 106.012C36.9866 106.012 35.4561 102.964 37.0096 100.602C38.5631 98.241 37.7979 97.4889 37.7979 97.4889C37.7979 97.4889 39.44 98.8748 39.2955 99.8207C40.6093 98.7336 38.7602 96.0733 40.3104 93.7349C40.9508 95.2916 40.7899 96.3886 43.0791 98.6909C45.4865 101.102 46.6951 106.012 40.271 106.012Z" fill="#F0F0F0"/>
<path opacity="0.5" d="M40.9016 105.089C42.3664 105.089 43.0496 103.729 42.3566 102.678C41.6636 101.627 42.0052 101.289 42.0052 101.289C42.0052 101.289 41.2695 101.906 41.3483 102.327C40.7604 101.844 41.588 100.655 40.8983 99.614C40.6126 100.31 40.6816 100.796 39.6634 101.824C38.5763 102.905 38.0377 105.089 40.9016 105.089Z" fill="#E6E6E6"/>
<path d="M119.952 75.0996H146.572V116.321H119.952V75.0996Z" fill="#F0F0F0"/>
<path d="M143.573 113.112V78.3116H144.036V113.112H143.573Z" fill="#E6E6E6"/>
<path d="M122.908 78.3116H144.036V78.8963H122.908V78.3116Z" fill="#E6E6E6"/>
<path d="M92.8695 75.0996H119.489V116.321H92.8695V75.0996Z" fill="#F0F0F0"/>
<path d="M92.8663 116.325H90.2125V75.1031H92.8663V116.325Z" fill="#E0E0E0"/>
<path d="M116.49 113.112V78.3116H116.954V113.112H116.49Z" fill="#E6E6E6"/>
<path d="M119.489 116.324V75.5692H119.952V116.324H119.489Z" fill="#E6E6E6"/>
<path d="M95.8255 78.3116H116.954V78.8963H95.8255V78.3116Z" fill="#E6E6E6"/>
<path d="M120.832 84.2201H121.827V93.3275H120.832V84.2201Z" fill="#E0E0E0"/>
<path d="M117.614 84.2201H118.609V93.3275H117.614V84.2201Z" fill="#E0E0E0"/>
<path d="M94.7023 18.6945H142.082V66.0742H94.7023V18.6945Z" fill="#FAFAFA"/>
<path d="M138.328 66.0742L121.539 18.6945H108.94L125.729 66.0742H138.328Z" fill="white"/>
<path d="M123.069 66.0742L106.283 18.6945H101.688L118.474 66.0742H123.069Z" fill="white"/>
<path d="M91.5558 17.0656H145.228C145.306 17.0655 145.381 17.0962 145.436 17.151C145.492 17.2057 145.523 17.28 145.524 17.3579C145.523 17.4357 145.492 17.51 145.436 17.5648C145.381 17.6195 145.306 17.6502 145.228 17.6502H91.5558C91.4783 17.6502 91.4039 17.6194 91.3491 17.5645C91.2943 17.5097 91.2635 17.4354 91.2635 17.3579C91.2635 17.2803 91.2943 17.206 91.3491 17.1512C91.4039 17.0963 91.4783 17.0656 91.5558 17.0656Z" fill="#E0E0E0"/>
<path d="M118.783 66.1763H118.001V18.5929H118.783V66.1763Z" fill="#F0F0F0"/>
<path d="M118.001 66.1763H117.61V18.5929H118.001V66.1763Z" fill="#E0E0E0"/>
<path d="M142.538 41.9937V42.7754H94.2455V41.9937H142.538Z" fill="#F0F0F0"/>
<path d="M94.2457 65.749V18.2379H142.525V65.749V66.5307H94.2457V65.749ZM141.757 65.749V19.0196H95.0274V65.749H141.757Z" fill="#F0F0F0"/>
<path d="M94.2457 66.5308H93.8549V18.238H94.2457V66.5308Z" fill="#E0E0E0"/>
<path opacity="0.5" d="M103.948 16.3462V68.0613H89.8217L92.4131 16.3462H103.948Z" fill="#EBEBEB"/>
<path opacity="0.5" d="M132.446 16.3462V68.0613H146.572L143.98 16.3462H132.446Z" fill="#EBEBEB"/>
<path d="M62.9558 26.1794H76.0209V39.2445H62.9558V26.1794Z" fill="#EBEBEB"/>
<path d="M62.9558 39.2445H61.7964V26.1794H62.9558V39.2445Z" fill="#E0E0E0"/>
<path d="M64.7262 27.9496H74.2507V37.4741H64.7262V27.9496Z" fill="white"/>
<path d="M65.8953 29.1191H73.0814V36.3053H65.8953V29.1191Z" fill="#F5F5F5"/>
<path d="M57.0013 42.1644H70.0664V55.2295H57.0013V42.1644Z" fill="#EBEBEB"/>
<path d="M57.0046 55.226H55.8452V42.1609H57.0046V55.226Z" fill="#E0E0E0"/>
<path d="M58.7716 43.9346H68.2961V53.4591H58.7716V43.9346Z" fill="white"/>
<path d="M62.3384 45.1038H64.7294C66.0535 45.1038 67.127 46.1772 67.127 47.5013V49.8923C67.127 51.2165 66.0535 52.2899 64.7294 52.2899H62.3384C61.0143 52.2899 59.9408 51.2165 59.9408 49.8923V47.5013C59.9408 46.1772 61.0143 45.1038 62.3384 45.1038Z" fill="#F5F5F5"/>
<path d="M82.8916 131.157C47.7222 131.157 19.2117 129.492 19.2117 127.439C19.2117 125.385 47.7222 123.721 82.8916 123.721C118.061 123.721 146.572 125.385 146.572 127.439C146.572 129.492 118.061 131.157 82.8916 131.157Z" fill="#BFC6D4"/>
<path d="M139.602 85.9413H139.931V90.3554H139.602V85.9413Z" fill="#C8345D"/>
<path d="M139.602 91.6691H139.931V93.4952H139.602V91.6691Z" fill="#C8345D"/>
<path d="M138.781 69.8088H85.0726V127.439H137.244C137.651 127.439 138.041 127.277 138.329 126.99C138.616 126.702 138.778 126.312 138.778 125.905V69.8088H138.781Z" fill="#C8345D"/>
<path opacity="0.2" d="M85.0726 69.8088H138.781V73.8945H107.879L106.854 127.439L106.138 73.8945H85.0726V69.8088Z" fill="#141D2F"/>
<path d="M139.244 61.0493H85.0725V72.7284H139.244C139.447 72.7284 139.642 72.6478 139.785 72.5043C139.929 72.3607 140.01 72.1661 140.01 71.9631V61.8178C140.01 61.7171 139.99 61.6172 139.952 61.524C139.914 61.4308 139.858 61.346 139.787 61.2746C139.715 61.2032 139.631 61.1465 139.538 61.1079C139.445 61.0692 139.345 61.0493 139.244 61.0493Z" fill="#C8345D"/>
<path d="M118.1 127.439L118.661 61.0493H106.982L106.424 127.439H118.1Z" fill="#263238"/>
<path d="M63.905 127.439H85.0594V69.8086H62.3811L62.3811 125.905C62.3811 126.31 62.5413 126.699 62.8269 126.986C63.1124 127.273 63.5 127.436 63.905 127.439Z" fill="#C8345D"/>
<path opacity="0.2" d="M63.905 127.439H85.0594V69.8086H62.3811L62.3811 125.905C62.3811 126.31 62.5413 126.699 62.8269 126.986C63.1124 127.273 63.5 127.436 63.905 127.439Z" fill="#141D2F"/>
<path opacity="0.2" d="M85.0725 69.8088H62.3843V73.8945H75.0454L76.7664 127.439L76.5792 73.8945H85.0725V69.8088Z" fill="#141D2F"/>
<path d="M61.918 72.7284H85.0725V61.0493H61.918C61.8175 61.0493 61.718 61.0691 61.6251 61.1076C61.5323 61.146 61.4479 61.2024 61.3769 61.2735C61.3058 61.3445 61.2494 61.4289 61.211 61.5217C61.1725 61.6146 61.1527 61.7141 61.1527 61.8146V71.9599C61.1523 72.0606 61.1718 72.1605 61.21 72.2537C61.2483 72.3469 61.3046 72.4317 61.3757 72.5031C61.4468 72.5745 61.5313 72.6312 61.6244 72.6698C61.7174 72.7085 61.8172 72.7284 61.918 72.7284Z" fill="#C8345D"/>
<path opacity="0.2" d="M61.918 72.7284H85.0725V61.0493H61.918C61.8175 61.0493 61.718 61.0691 61.6251 61.1076C61.5323 61.146 61.4479 61.2024 61.3769 61.2735C61.3058 61.3445 61.2494 61.4289 61.211 61.5217C61.1725 61.6146 61.1527 61.7141 61.1527 61.8146V71.9599C61.1523 72.0606 61.1718 72.1605 61.21 72.2537C61.2483 72.3469 61.3046 72.4317 61.3757 72.5031C61.4468 72.5745 61.5313 72.6312 61.6244 72.6698C61.7174 72.7085 61.8172 72.7284 61.918 72.7284Z" fill="#141D2F"/>
<path d="M76.7664 127.439L75.7876 61.0493H68.4997L69.4784 127.439H76.7664Z" fill="#263238"/>
<path opacity="0.2" d="M76.7664 127.439L75.7876 61.0493H68.4997L69.4784 127.439H76.7664Z" fill="#141D2F"/>
<path d="M72.9632 39.0114V38.995H82.5174C83.0672 39.0408 83.6039 39.1878 84.1004 39.4285C93.7892 43.488 98.4989 54.1259 100.581 61.0361H90.807C90.807 61.0361 67.6755 38.3546 72.9632 39.0114Z" fill="#263238"/>
<path opacity="0.5" d="M90.8069 61.0494C90.8069 52.0733 84.0149 43.5012 74.3261 39.4418C64.6373 35.3824 90.8069 61.0494 90.8069 61.0494Z" fill="#141D2F"/>
<path d="M70.4671 44.6966H77.5579C78.0105 44.7355 78.454 44.8464 78.8717 45.0251C87.227 48.0401 93.7727 55.9389 97.3033 61.069H90.045C90.045 61.069 66.3518 44.204 70.4671 44.6966Z" fill="#263238"/>
<path opacity="0.5" d="M90.0319 61.0496C86.6129 52.1819 79.9555 48.0207 71.6002 45.0056C63.2449 41.9906 90.0319 61.0496 90.0319 61.0496Z" fill="#141D2F"/>
<path d="M118.215 36.2101V36.1904H127.792C127.967 36.187 128.141 36.2306 128.294 36.3166C128.447 36.4027 128.574 36.528 128.662 36.6797C131.651 41.2548 118.809 53.2525 109.472 61.0462H99.6977C99.6977 61.0462 114.017 35.4645 118.215 36.2101Z" fill="#263238"/>
<path opacity="0.5" d="M99.6978 61.0492C109.022 53.2555 121.877 41.2579 118.888 36.6828C115.899 32.1077 99.6978 61.0492 99.6978 61.0492Z" fill="#141D2F"/>
<path d="M108.23 42.6244H115.338C115.481 42.628 115.622 42.662 115.751 42.7243C115.88 42.7866 115.995 42.8757 116.087 42.9857C119.253 46.385 112.198 55.2954 106.89 61.0791H99.6419C99.6419 61.0791 104.963 42.053 108.23 42.6244Z" fill="#263238"/>
<path opacity="0.5" d="M99.6418 61.0492C104.949 55.2622 112.007 46.3551 108.838 42.9559C105.669 39.5566 99.6418 61.0492 99.6418 61.0492Z" fill="#141D2F"/>
</svg>
