<svg width="13" height="12" viewBox="0 0 13 12" fill="none" xmlns="http://www.w3.org/2000/svg">
<path d="M6.50002 0.400024C3.40742 0.400024 0.900024 2.90742 0.900024 6.00003C0.900024 9.09263 3.40742 11.6 6.50002 11.6C9.59262 11.6 12.1 9.09263 12.1 6.00003C12.1 2.90742 9.59262 0.400024 6.50002 0.400024ZM9.62996 4.92996L6.10196 8.45796C6.01423 8.54569 5.89569 8.59469 5.77202 8.59469C5.64836 8.59469 5.52936 8.54569 5.44209 8.45796L3.83069 6.84656C3.64822 6.66409 3.64822 6.36916 3.83069 6.18669C4.01316 6.00422 4.30809 6.00422 4.49056 6.18669L5.77202 7.46816L8.97009 4.27009C9.15256 4.08763 9.44749 4.08763 9.62996 4.27009C9.81243 4.45256 9.81243 4.74749 9.62996 4.92996Z" fill="#C8345D"/>
</svg>
